<mxfile host="app.diagrams.net" modified="2024-04-06T20:27:07.935Z" agent="Mozilla/5.0 (Macintosh; Intel Mac OS X 10_15_7) AppleWebKit/537.36 (KHTML, like Gecko) Chrome/123.0.0.0 Safari/537.36" etag="5hgCA-bJHNUQNrp7DbFQ" version="24.2.2" type="device">
  <diagram name="Page-1" id="yFC4AOXb4J8iYvleZ_BS">
    <mxGraphModel dx="1224" dy="809" grid="1" gridSize="10" guides="1" tooltips="1" connect="1" arrows="1" fold="1" page="1" pageScale="1" pageWidth="850" pageHeight="1100" math="0" shadow="0">
      <root>
        <mxCell id="0" />
        <mxCell id="1" parent="0" />
        <mxCell id="bpFJwz-h4U5RPvyPPlPt-29" value="" style="rounded=0;whiteSpace=wrap;html=1;fillColor=#fff2cc;strokeColor=#d6b656;" parent="1" vertex="1">
          <mxGeometry x="250" y="30" width="400" height="500" as="geometry" />
        </mxCell>
        <mxCell id="bpFJwz-h4U5RPvyPPlPt-22" style="edgeStyle=none;rounded=0;orthogonalLoop=1;jettySize=auto;html=1;exitX=1;exitY=0.3333333333333333;exitDx=0;exitDy=0;exitPerimeter=0;entryX=0;entryY=0.5;entryDx=0;entryDy=0;" parent="1" source="bpFJwz-h4U5RPvyPPlPt-3" target="bpFJwz-h4U5RPvyPPlPt-12" edge="1">
          <mxGeometry relative="1" as="geometry" />
        </mxCell>
        <mxCell id="bpFJwz-h4U5RPvyPPlPt-23" style="edgeStyle=none;rounded=0;orthogonalLoop=1;jettySize=auto;html=1;exitX=1;exitY=0.3333333333333333;exitDx=0;exitDy=0;exitPerimeter=0;entryX=0;entryY=0.5;entryDx=0;entryDy=0;" parent="1" source="bpFJwz-h4U5RPvyPPlPt-3" target="bpFJwz-h4U5RPvyPPlPt-13" edge="1">
          <mxGeometry relative="1" as="geometry" />
        </mxCell>
        <mxCell id="bpFJwz-h4U5RPvyPPlPt-24" style="edgeStyle=none;rounded=0;orthogonalLoop=1;jettySize=auto;html=1;exitX=1;exitY=0.3333333333333333;exitDx=0;exitDy=0;exitPerimeter=0;" parent="1" source="bpFJwz-h4U5RPvyPPlPt-3" target="bpFJwz-h4U5RPvyPPlPt-14" edge="1">
          <mxGeometry relative="1" as="geometry" />
        </mxCell>
        <mxCell id="bpFJwz-h4U5RPvyPPlPt-3" value="Pharmacy Manager" style="shape=umlActor;verticalLabelPosition=bottom;verticalAlign=top;html=1;outlineConnect=0;" parent="1" vertex="1">
          <mxGeometry x="140" y="250" width="30" height="60" as="geometry" />
        </mxCell>
        <mxCell id="bpFJwz-h4U5RPvyPPlPt-28" style="edgeStyle=none;rounded=0;orthogonalLoop=1;jettySize=auto;html=1;exitX=0;exitY=0.3333333333333333;exitDx=0;exitDy=0;exitPerimeter=0;" parent="1" source="bpFJwz-h4U5RPvyPPlPt-8" target="bpFJwz-h4U5RPvyPPlPt-12" edge="1">
          <mxGeometry relative="1" as="geometry">
            <mxPoint x="572.4264068711927" y="391.7157287525381" as="targetPoint" />
          </mxGeometry>
        </mxCell>
        <mxCell id="bpFJwz-h4U5RPvyPPlPt-8" value="Cashier" style="shape=umlActor;verticalLabelPosition=bottom;verticalAlign=top;html=1;outlineConnect=0;" parent="1" vertex="1">
          <mxGeometry x="700" y="400" width="30" height="60" as="geometry" />
        </mxCell>
        <mxCell id="bpFJwz-h4U5RPvyPPlPt-12" value="Access inventory" style="ellipse;whiteSpace=wrap;html=1;" parent="1" vertex="1">
          <mxGeometry x="350" y="300" width="120" height="80" as="geometry" />
        </mxCell>
        <mxCell id="bpFJwz-h4U5RPvyPPlPt-13" value="Create new items" style="ellipse;whiteSpace=wrap;html=1;" parent="1" vertex="1">
          <mxGeometry x="300" y="60" width="120" height="80" as="geometry" />
        </mxCell>
        <mxCell id="bpFJwz-h4U5RPvyPPlPt-14" value="Update items" style="ellipse;whiteSpace=wrap;html=1;" parent="1" vertex="1">
          <mxGeometry x="290" y="180" width="120" height="80" as="geometry" />
        </mxCell>
        <mxCell id="bpFJwz-h4U5RPvyPPlPt-15" value="Update stock levels" style="ellipse;whiteSpace=wrap;html=1;" parent="1" vertex="1">
          <mxGeometry x="290" y="400" width="120" height="80" as="geometry" />
        </mxCell>
        <mxCell id="BtRmZ3w2KKQiGli9AUrO-1" value="" style="edgeStyle=orthogonalEdgeStyle;rounded=0;orthogonalLoop=1;jettySize=auto;html=1;" edge="1" parent="1" source="bpFJwz-h4U5RPvyPPlPt-16" target="bpFJwz-h4U5RPvyPPlPt-13">
          <mxGeometry relative="1" as="geometry" />
        </mxCell>
        <mxCell id="bpFJwz-h4U5RPvyPPlPt-16" value="Prompt for inputs" style="ellipse;whiteSpace=wrap;html=1;" parent="1" vertex="1">
          <mxGeometry x="480" y="90" width="120" height="80" as="geometry" />
        </mxCell>
        <mxCell id="bpFJwz-h4U5RPvyPPlPt-18" value="Display options" style="ellipse;whiteSpace=wrap;html=1;" parent="1" vertex="1">
          <mxGeometry x="490" y="210" width="120" height="80" as="geometry" />
        </mxCell>
        <mxCell id="bpFJwz-h4U5RPvyPPlPt-26" style="edgeStyle=none;rounded=0;orthogonalLoop=1;jettySize=auto;html=1;exitX=0;exitY=0.3333333333333333;exitDx=0;exitDy=0;exitPerimeter=0;entryX=1;entryY=0.5;entryDx=0;entryDy=0;" parent="1" source="bpFJwz-h4U5RPvyPPlPt-19" target="bpFJwz-h4U5RPvyPPlPt-16" edge="1">
          <mxGeometry relative="1" as="geometry" />
        </mxCell>
        <mxCell id="bpFJwz-h4U5RPvyPPlPt-27" style="edgeStyle=none;rounded=0;orthogonalLoop=1;jettySize=auto;html=1;exitX=0;exitY=0.3333333333333333;exitDx=0;exitDy=0;exitPerimeter=0;entryX=1;entryY=0;entryDx=0;entryDy=0;" parent="1" source="bpFJwz-h4U5RPvyPPlPt-19" target="bpFJwz-h4U5RPvyPPlPt-18" edge="1">
          <mxGeometry relative="1" as="geometry" />
        </mxCell>
        <mxCell id="bpFJwz-h4U5RPvyPPlPt-19" value="System" style="shape=umlActor;verticalLabelPosition=bottom;verticalAlign=top;html=1;outlineConnect=0;" parent="1" vertex="1">
          <mxGeometry x="750" y="130" width="30" height="60" as="geometry" />
        </mxCell>
        <mxCell id="bpFJwz-h4U5RPvyPPlPt-25" style="edgeStyle=none;rounded=0;orthogonalLoop=1;jettySize=auto;html=1;exitX=1;exitY=0.3333333333333333;exitDx=0;exitDy=0;exitPerimeter=0;entryX=0.208;entryY=0.128;entryDx=0;entryDy=0;entryPerimeter=0;" parent="1" source="bpFJwz-h4U5RPvyPPlPt-3" target="bpFJwz-h4U5RPvyPPlPt-15" edge="1">
          <mxGeometry relative="1" as="geometry" />
        </mxCell>
        <mxCell id="bpFJwz-h4U5RPvyPPlPt-30" value="Inventory Management" style="text;html=1;align=center;verticalAlign=middle;whiteSpace=wrap;rounded=0;" parent="1" vertex="1">
          <mxGeometry x="385" y="30" width="130" height="30" as="geometry" />
        </mxCell>
      </root>
    </mxGraphModel>
  </diagram>
</mxfile>
